<svg xmlns="http://www.w3.org/2000/svg" viewBox="0 0 24 24" width="24" height="24">
  <rect width="24" height="24" rx="5" fill="#04080a"/>
  <g stroke="#2dd4bf" stroke-width="1.5" stroke-linecap="round" transform="translate(12 12) scale(0.78) translate(-12 -12)">
    <line x1="12" y1="12" x2="20.25" y2="12"/>
    <line x1="12" y1="12" x2="17.83" y2="17.83"/>
    <line x1="12" y1="12" x2="12" y2="20.25"/>
    <line x1="12" y1="12" x2="6.17" y2="17.83"/>
    <line x1="12" y1="12" x2="3.75" y2="12"/>
    <line x1="12" y1="12" x2="6.17" y2="6.17"/>
    <line x1="12" y1="12" x2="12" y2="3.75"/>
    <line x1="12" y1="12" x2="17.83" y2="6.17"/>
  </g>
  <g fill="#2dd4bf" transform="translate(12 12) scale(0.78) translate(-12 -12)">
    <circle cx="20.25" cy="12" r="1.85"/>
    <circle cx="17.83" cy="17.83" r="1.85"/>
    <circle cx="12" cy="20.25" r="1.85"/>
    <circle cx="6.17" cy="17.83" r="1.85"/>
    <circle cx="3.75" cy="12" r="1.85"/>
    <circle cx="6.17" cy="6.17" r="1.85"/>
    <circle cx="12" cy="3.75" r="1.85"/>
    <circle cx="17.83" cy="6.17" r="1.85"/>
    <circle cx="12" cy="12" r="3.15"/>
  </g>
</svg>
